M48
METRIC,LZ,000.000
;FILE_FORMAT=3:3
;TYPE=PLATED
;Layer: PTH_Through
;EasyEDA v6.5.34, 2023-10-19 08:42:31
;e3f5e68dd2074443958a13ea81cc3fb2,08f173712dbc44b08fd2a75eaeabdc68,10
;Gerber Generator version 0.2
;Holesize 1 = 0.800 mm
T01C0.800
;Holesize 2 = 0.900 mm
T02C0.900
;Holesize 3 = 1.000 mm
T03C1.000
;Holesize 4 = 1.200 mm
T04C1.200
;Holesize 5 = 1.301 mm
T05C1.301
;Holesize 6 = 2.000 mm
T06C2.000
%
G05
G90
T01
X027800Y029700
X027800Y021500
T02
X039410Y039600
X031790Y039600
X032300Y027410
X032300Y019790
X027790Y017800
X035410Y017800
T03
X029760Y029700
X032300Y029700
X034840Y029700
X039370Y028110
X039370Y025570
X039370Y023030
X039370Y020490
X036830Y028110
X036830Y025570
X036830Y023030
X036830Y020490
T04
X037800Y008600
X035300Y008600
X018800Y008600
X013800Y008600
T05
X024950Y028010
X014790Y028010
X012250Y028010
X012250Y020390
X014790Y020390
X024950Y020390
T06
X004500Y039600
X004500Y034600
X004500Y028000
X004500Y023000
X004500Y008600
X004500Y003600
M30
