M48
METRIC,LZ,000.000
;FILE_FORMAT=3:3
;TYPE=PLATED
;Layer: PTH_Through
;EasyEDA v6.5.34, 2023-10-19 08:42:31
;b67b5cfffcec474382aab84a97846f09,08f173712dbc44b08fd2a75eaeabdc68,10
;Gerber Generator version 0.2
;Holesize 1 = 0.800 mm
T01C0.800
;Holesize 2 = 0.900 mm
T02C0.900
;Holesize 3 = 1.000 mm
T03C1.000
;Holesize 4 = 1.200 mm
T04C1.200
;Holesize 5 = 1.301 mm
T05C1.301
;Holesize 6 = 2.000 mm
T06C2.000
%
G05
G90
T01
X028200Y029900
X028200Y021700
T02
X034800Y028410
X034800Y020790
X028190Y018000
X035810Y018000
T03
X032200Y030940
X032200Y028400
X032200Y025860
X039770Y028310
X039770Y025770
X039770Y023230
X039770Y020690
X037230Y028310
X037230Y025770
X037230Y023230
X037230Y020690
T04
X038200Y008800
X035700Y008800
X019200Y008800
X014200Y008800
T05
X025350Y028210
X015190Y028210
X012650Y028210
X012650Y020590
X015190Y020590
X025350Y020590
T06
X004900Y028200
X004900Y023200
X004900Y008800
X004900Y003800
M30
