G04 Layer: BottomLayer*
G04 EasyEDA v6.5.34, 2023-10-19 08:42:31*
G04 b67b5cfffcec474382aab84a97846f09,08f173712dbc44b08fd2a75eaeabdc68,10*
G04 Gerber Generator version 0.2*
G04 Scale: 100 percent, Rotated: No, Reflected: No *
G04 Dimensions in millimeters *
G04 leading zeros omitted , absolute positions ,4 integer and 5 decimal *
%FSLAX45Y45*%
%MOMM*%

%ADD10C,2.0000*%
%ADD11C,1.6000*%
%ADD12R,2.0000X3.0000*%
%ADD13R,2.3000X2.0000*%
%ADD14R,1.8000X1.8000*%
%ADD15C,1.8000*%
%ADD16C,1.8796*%
%ADD17R,3.0000X2.2000*%
%ADD18R,2.0000X2.0000*%

%LPD*%
G36*
X70154Y2639974D02*
G01*
X66294Y2640787D01*
X62991Y2642971D01*
X60756Y2646273D01*
X59994Y2650134D01*
X59994Y3169818D01*
X60756Y3173730D01*
X62991Y3177032D01*
X66294Y3179216D01*
X70154Y3179978D01*
X1389837Y3179978D01*
X1393748Y3179216D01*
X1397000Y3177032D01*
X1399235Y3173730D01*
X1399997Y3169818D01*
X1399997Y2863494D01*
X1399590Y2860598D01*
X1396746Y2851048D01*
X1395272Y2844292D01*
X1394002Y2836164D01*
X1393393Y2829204D01*
X1393088Y2820974D01*
X1393342Y2814015D01*
X1394002Y2805785D01*
X1395120Y2798927D01*
X1396746Y2790850D01*
X1399336Y2782417D01*
X1399997Y2778861D01*
X1399997Y2650134D01*
X1399235Y2646273D01*
X1397000Y2642971D01*
X1393748Y2640787D01*
X1389837Y2639974D01*
G37*

%LPD*%
G36*
X70154Y699973D02*
G01*
X66294Y700786D01*
X62991Y702970D01*
X60756Y706272D01*
X59994Y710133D01*
X59994Y2489809D01*
X60756Y2493721D01*
X62991Y2497023D01*
X66294Y2499207D01*
X70154Y2499969D01*
X955802Y2499969D01*
X959662Y2499207D01*
X962964Y2497023D01*
X1097026Y2362962D01*
X1099210Y2359660D01*
X1100023Y2355799D01*
X1100023Y1960981D01*
X1100683Y1959305D01*
X1159306Y1900682D01*
X1160983Y1899970D01*
X1455470Y1899970D01*
X1459585Y1899107D01*
X1463040Y1896618D01*
X1547368Y1802892D01*
X1549298Y1799742D01*
X1550009Y1796084D01*
X1550009Y710133D01*
X1549247Y706272D01*
X1547012Y702970D01*
X1543710Y700786D01*
X1539849Y699973D01*
G37*

%LPD*%
G36*
X3104184Y680008D02*
G01*
X3100324Y680770D01*
X3097022Y682955D01*
X3002991Y777036D01*
X3000756Y780338D01*
X2999994Y784199D01*
X2999994Y2635808D01*
X3000756Y2639669D01*
X3002991Y2642971D01*
X3037027Y2677007D01*
X3040329Y2679242D01*
X3044190Y2680004D01*
X3255772Y2680004D01*
X3259683Y2679242D01*
X3262985Y2677007D01*
X3317036Y2622956D01*
X3319221Y2619654D01*
X3319983Y2615793D01*
X3319983Y2544216D01*
X3319221Y2540304D01*
X3317036Y2537002D01*
X3260699Y2480716D01*
X3259988Y2478989D01*
X3259988Y1900986D01*
X3260699Y1899310D01*
X3499307Y1660702D01*
X3500983Y1659991D01*
X3678986Y1659991D01*
X3680714Y1660702D01*
X3719271Y1699310D01*
X3719982Y1700987D01*
X3719982Y1878990D01*
X3719271Y1880717D01*
X3622954Y1977034D01*
X3620770Y1980336D01*
X3620008Y1984197D01*
X3620008Y2159812D01*
X3620770Y2163724D01*
X3622954Y2167026D01*
X3626256Y2169210D01*
X3630168Y2169972D01*
X3819855Y2169972D01*
X3823715Y2169210D01*
X3827018Y2167026D01*
X3829202Y2163724D01*
X3830015Y2159812D01*
X3830015Y2011019D01*
X3830675Y2009292D01*
X3899306Y1940712D01*
X3900982Y1940001D01*
X4075785Y1940001D01*
X4079646Y1939239D01*
X4082948Y1937004D01*
X4136999Y1882952D01*
X4139234Y1879650D01*
X4139996Y1875789D01*
X4139996Y1504188D01*
X4139234Y1500327D01*
X4136999Y1497025D01*
X3660698Y1020724D01*
X3659987Y1018997D01*
X3659987Y784199D01*
X3659225Y780338D01*
X3657041Y777036D01*
X3562959Y682955D01*
X3559657Y680770D01*
X3555796Y680008D01*
G37*

%LPD*%
G36*
X70154Y59994D02*
G01*
X66294Y60756D01*
X62991Y62991D01*
X60756Y66294D01*
X59994Y70154D01*
X59994Y549859D01*
X60756Y553720D01*
X62991Y557022D01*
X66294Y559206D01*
X70154Y560019D01*
X1658975Y560019D01*
X1659991Y560984D01*
X1659991Y1915769D01*
X1660753Y1919681D01*
X1662988Y1922983D01*
X1917039Y2177034D01*
X1920341Y2179218D01*
X1924202Y2179980D01*
X2635808Y2179980D01*
X2639669Y2179218D01*
X2642971Y2177034D01*
X2657043Y2162962D01*
X2659227Y2159660D01*
X2659989Y2155799D01*
X2659989Y70154D01*
X2659227Y66294D01*
X2657043Y62991D01*
X2653741Y60756D01*
X2649829Y59994D01*
G37*

%LPD*%
G36*
X2730144Y59994D02*
G01*
X2726283Y60756D01*
X2722981Y62991D01*
X2720746Y66294D01*
X2719984Y70154D01*
X2719984Y689813D01*
X2720746Y693724D01*
X2722981Y697026D01*
X2726283Y699211D01*
X2730144Y699973D01*
X2975762Y699973D01*
X2979674Y699211D01*
X2982976Y697026D01*
X3099308Y580694D01*
X3100984Y579983D01*
X3558997Y579983D01*
X3560724Y580694D01*
X3719271Y739292D01*
X3719982Y741019D01*
X3719982Y935786D01*
X3720744Y939698D01*
X3722979Y942949D01*
X4219295Y1439265D01*
X4220006Y1440992D01*
X4220006Y1918970D01*
X4219295Y1920697D01*
X4122978Y2017014D01*
X4120743Y2020316D01*
X4119981Y2024227D01*
X4119981Y2159000D01*
X4119270Y2160727D01*
X4060698Y2219299D01*
X4058970Y2220010D01*
X3944213Y2220010D01*
X3940301Y2220772D01*
X3937000Y2222957D01*
X3882948Y2277008D01*
X3880764Y2280310D01*
X3880002Y2284222D01*
X3880002Y2355799D01*
X3880764Y2359660D01*
X3882948Y2362962D01*
X3937000Y2417013D01*
X3940301Y2419197D01*
X3944213Y2420010D01*
X4058970Y2420010D01*
X4060698Y2420721D01*
X4119270Y2479294D01*
X4119981Y2480970D01*
X4119981Y2658973D01*
X4119270Y2660700D01*
X4040682Y2739288D01*
X4039006Y2739999D01*
X3944213Y2739999D01*
X3940301Y2740761D01*
X3937000Y2742946D01*
X3882948Y2796997D01*
X3880764Y2800299D01*
X3880002Y2804210D01*
X3880002Y3169818D01*
X3880764Y3173730D01*
X3882948Y3177032D01*
X3886250Y3179216D01*
X3890162Y3179978D01*
X4389831Y3179978D01*
X4393742Y3179216D01*
X4396994Y3177032D01*
X4399229Y3173730D01*
X4399991Y3169818D01*
X4399991Y70154D01*
X4399229Y66294D01*
X4396994Y62991D01*
X4393742Y60756D01*
X4389831Y59994D01*
G37*

%LPD*%
D10*
X2820004Y2989996D02*
G01*
X2923992Y3093984D01*
X3220003Y3093984D01*
X3220079Y2839907D02*
G01*
X3479921Y2840923D01*
X2818988Y1800006D02*
G01*
X2818988Y721004D01*
X3059996Y479996D01*
X3599992Y479996D01*
X3823906Y703907D01*
X3823906Y885007D01*
X1519041Y2059111D02*
G01*
X1820031Y2360101D01*
X2740019Y2360101D01*
X2820029Y2280091D01*
X2820029Y2170109D01*
X2820004Y2169982D02*
G01*
X2820004Y1801020D01*
X2818993Y1800009D01*
X1779899Y3079937D02*
G01*
X1519041Y2821111D01*
X2820004Y2989996D02*
G01*
X2730063Y3079937D01*
X1779899Y3079937D01*
X3479990Y2078989D02*
G01*
X3479990Y1901004D01*
X3580988Y1800006D01*
X3722999Y2322992D02*
G01*
X3479993Y2322992D01*
X3479993Y2078992D01*
D11*
G01*
X2820004Y2989996D03*
G01*
X2820004Y2169982D03*
D10*
G01*
X2534991Y2820984D03*
G01*
X1518991Y2820984D03*
D12*
G01*
X1264991Y2820984D03*
D10*
G01*
X1264991Y2058984D03*
G01*
X1518991Y2058984D03*
D13*
G01*
X2534991Y2058984D03*
D14*
G01*
X3220003Y3093984D03*
D15*
G01*
X3220003Y2839984D03*
G01*
X3220003Y2585984D03*
D16*
G01*
X3479998Y2841000D03*
G01*
X3479998Y2079000D03*
G01*
X2818988Y1800006D03*
G01*
X3580988Y1800006D03*
D17*
G01*
X490011Y2819994D03*
G01*
X490011Y2319995D03*
G01*
X490011Y879993D03*
G01*
X490011Y379994D03*
D15*
G01*
X3976999Y2830992D03*
G01*
X3976999Y2576992D03*
G01*
X3976999Y2322992D03*
G01*
X3976999Y2068992D03*
G01*
X3722999Y2830992D03*
G01*
X3722999Y2576992D03*
G01*
X3722999Y2322992D03*
D14*
G01*
X3722999Y2068992D03*
D10*
G01*
X3820002Y879993D03*
G01*
X3570015Y879993D03*
G01*
X1920006Y879993D03*
D18*
G01*
X1420007Y879993D03*
M02*
