G04 Layer: TopSilkscreenLayer*
G04 EasyEDA v6.5.34, 2023-10-19 08:42:31*
G04 b67b5cfffcec474382aab84a97846f09,08f173712dbc44b08fd2a75eaeabdc68,10*
G04 Gerber Generator version 0.2*
G04 Scale: 100 percent, Rotated: No, Reflected: No *
G04 Dimensions in millimeters *
G04 leading zeros omitted , absolute positions ,4 integer and 5 decimal *
%FSLAX45Y45*%
%MOMM*%

%ADD10C,0.1524*%
%ADD11C,0.2032*%
%ADD12C,0.2540*%
%ADD13C,0.5000*%

%LPD*%
D10*
X2552278Y2554594D02*
G01*
X2661244Y2554594D01*
X2552278Y2554594D02*
G01*
X2552278Y2590916D01*
X2557358Y2606664D01*
X2567772Y2616824D01*
X2578186Y2622158D01*
X2593934Y2627238D01*
X2619842Y2627238D01*
X2635336Y2622158D01*
X2645750Y2616824D01*
X2656164Y2606664D01*
X2661244Y2590916D01*
X2661244Y2554594D01*
X2573106Y2661528D02*
G01*
X2567772Y2671942D01*
X2552278Y2687690D01*
X2661244Y2687690D01*
X1895043Y3139511D02*
G01*
X1895043Y3030545D01*
X1967687Y3139511D02*
G01*
X1895043Y3066867D01*
X1920951Y3092775D02*
G01*
X1967687Y3030545D01*
X2001977Y3118683D02*
G01*
X2012391Y3124017D01*
X2028139Y3139511D01*
X2028139Y3030545D01*
X2825277Y2845836D02*
G01*
X2830357Y2835422D01*
X2840771Y2825008D01*
X2851185Y2819674D01*
X2866933Y2814594D01*
X2892841Y2814594D01*
X2908335Y2819674D01*
X2918749Y2825008D01*
X2929163Y2835422D01*
X2934243Y2845836D01*
X2934243Y2866664D01*
X2929163Y2876824D01*
X2918749Y2887238D01*
X2908335Y2892572D01*
X2892841Y2897652D01*
X2866933Y2897652D01*
X2851185Y2892572D01*
X2840771Y2887238D01*
X2830357Y2876824D01*
X2825277Y2866664D01*
X2825277Y2845836D01*
X2913669Y2861330D02*
G01*
X2944657Y2892572D01*
X2846105Y2931942D02*
G01*
X2840771Y2942356D01*
X2825277Y2958104D01*
X2934243Y2958104D01*
X3722309Y2459995D02*
G01*
X3613343Y2459995D01*
X3722309Y2459995D02*
G01*
X3722309Y2413259D01*
X3717229Y2397765D01*
X3711895Y2392431D01*
X3701481Y2387351D01*
X3691067Y2387351D01*
X3680653Y2392431D01*
X3675573Y2397765D01*
X3670493Y2413259D01*
X3670493Y2459995D01*
X3670493Y2423673D02*
G01*
X3613343Y2387351D01*
X3701481Y2353061D02*
G01*
X3706815Y2342647D01*
X3722309Y2326899D01*
X3613343Y2326899D01*
X3140786Y1464868D02*
G01*
X3140786Y1573834D01*
X3140786Y1464868D02*
G01*
X3094050Y1464868D01*
X3078556Y1469948D01*
X3073222Y1475282D01*
X3068142Y1485696D01*
X3068142Y1496110D01*
X3073222Y1506524D01*
X3078556Y1511604D01*
X3094050Y1516684D01*
X3140786Y1516684D01*
X3104464Y1516684D02*
G01*
X3068142Y1573834D01*
X3028518Y1490776D02*
G01*
X3028518Y1485696D01*
X3023438Y1475282D01*
X3018104Y1469948D01*
X3007690Y1464868D01*
X2987116Y1464868D01*
X2976702Y1469948D01*
X2971368Y1475282D01*
X2966288Y1485696D01*
X2966288Y1496110D01*
X2971368Y1506524D01*
X2981782Y1522018D01*
X3033852Y1573834D01*
X2960954Y1573834D01*
X-94124Y2577983D02*
G01*
X-16146Y2577983D01*
X-652Y2583063D01*
X9761Y2593477D01*
X14841Y2609225D01*
X14841Y2619639D01*
X9761Y2635133D01*
X-652Y2645547D01*
X-16146Y2650627D01*
X-94124Y2650627D01*
X-73296Y2684917D02*
G01*
X-78630Y2695331D01*
X-94124Y2711079D01*
X14841Y2711079D01*
X-94124Y637987D02*
G01*
X-16146Y637987D01*
X-652Y643067D01*
X9761Y653481D01*
X14841Y669229D01*
X14841Y679643D01*
X9761Y695137D01*
X-652Y705551D01*
X-16146Y710631D01*
X-94124Y710631D01*
X-68216Y750255D02*
G01*
X-73296Y750255D01*
X-83710Y755335D01*
X-89044Y760669D01*
X-94124Y771083D01*
X-94124Y791657D01*
X-89044Y802071D01*
X-83710Y807405D01*
X-73296Y812485D01*
X-62882Y812485D01*
X-52468Y807405D01*
X-36974Y796991D01*
X14841Y744921D01*
X14841Y817819D01*
X2908292Y1543674D02*
G01*
X2908292Y1621652D01*
X2903212Y1637146D01*
X2892798Y1647560D01*
X2877050Y1652640D01*
X2866636Y1652640D01*
X2851142Y1647560D01*
X2840728Y1637146D01*
X2835648Y1621652D01*
X2835648Y1543674D01*
X2790944Y1543674D02*
G01*
X2733794Y1543674D01*
X2764782Y1585330D01*
X2749288Y1585330D01*
X2738874Y1590410D01*
X2733794Y1595490D01*
X2728460Y1611238D01*
X2728460Y1621652D01*
X2733794Y1637146D01*
X2744208Y1647560D01*
X2759702Y1652640D01*
X2775196Y1652640D01*
X2790944Y1647560D01*
X2796024Y1642480D01*
X2801358Y1632066D01*
D11*
X3176927Y2308397D02*
G01*
X3130699Y2502453D01*
X3084471Y2308397D02*
G01*
X3130699Y2502453D01*
X3084471Y2308397D02*
G01*
X3038243Y2502453D01*
X2992269Y2308397D02*
G01*
X3038243Y2502453D01*
X2931309Y2308397D02*
G01*
X2931309Y2502453D01*
X2870349Y2308397D02*
G01*
X2870349Y2502453D01*
X2870349Y2308397D02*
G01*
X2750207Y2308397D01*
X2870349Y2400853D02*
G01*
X2796435Y2400853D01*
X2689247Y2308397D02*
G01*
X2689247Y2502453D01*
D10*
X2613492Y1833514D02*
G01*
X2613492Y1755536D01*
X2618572Y1740042D01*
X2628986Y1729628D01*
X2644734Y1724548D01*
X2655148Y1724548D01*
X2670642Y1729628D01*
X2681056Y1740042D01*
X2686136Y1755536D01*
X2686136Y1833514D01*
X2772496Y1833514D02*
G01*
X2720426Y1760870D01*
X2798404Y1760870D01*
X2772496Y1833514D02*
G01*
X2772496Y1724548D01*
D12*
X2709994Y2359995D02*
G01*
X2709994Y2799994D01*
X2929994Y2359995D02*
G01*
X2929994Y2799994D01*
X2709994Y2359995D02*
G01*
X2929994Y2359995D01*
X2709994Y2799994D02*
G01*
X2929994Y2799994D01*
X2709994Y2453934D02*
G01*
X2929994Y2453934D01*
X1124996Y1914997D02*
G01*
X2674998Y1914997D01*
X1124993Y2964992D02*
G01*
X2674995Y2964992D01*
X1124991Y1914956D02*
G01*
X1124991Y2964992D01*
X2674995Y1914997D02*
G01*
X2674995Y2965033D01*
X1391996Y2439995D02*
G01*
X2535996Y2439995D01*
X2535996Y2662595D02*
G01*
X2535996Y2217394D01*
X1263995Y2376396D02*
G01*
X1263995Y2217394D01*
X1391996Y2439995D02*
G01*
X1201496Y2376495D01*
X1264107Y2662499D02*
G01*
X1263995Y2503594D01*
X1518996Y2198695D02*
G01*
X1519123Y2249495D01*
X1518996Y2630495D02*
G01*
X1518996Y2681295D01*
X3369980Y3037984D02*
G01*
X3369980Y2642003D01*
X3479993Y2713995D02*
G01*
X3479993Y2739395D01*
X3479993Y2205995D02*
G01*
X3479993Y2180595D01*
X3479993Y2713995D02*
G01*
X3556193Y2713995D01*
X3403793Y2713995D02*
G01*
X3479993Y2713995D01*
X3403793Y2205995D02*
G01*
X3403793Y2713995D01*
X3479993Y2205995D02*
G01*
X3403793Y2205995D01*
X3556193Y2205995D02*
G01*
X3479993Y2205995D01*
X3556193Y2713995D02*
G01*
X3556193Y2205995D01*
X2945993Y1799996D02*
G01*
X2920593Y1799996D01*
X3453993Y1799996D02*
G01*
X3479393Y1799996D01*
X2945993Y1799996D02*
G01*
X2945993Y1876196D01*
X2945993Y1723796D02*
G01*
X2945993Y1799996D01*
X3453993Y1723796D02*
G01*
X2945993Y1723796D01*
X3453993Y1799996D02*
G01*
X3453993Y1723796D01*
X3453993Y1876196D02*
G01*
X3453993Y1799996D01*
X2945993Y1876196D02*
G01*
X3453993Y1876196D01*
X812370Y3069983D02*
G01*
X812370Y3132782D01*
X718591Y3132782D01*
X718591Y3069983D01*
X129108Y3069983D02*
G01*
X129108Y2069983D01*
X278122Y3069983D02*
G01*
X278122Y2069983D01*
X989992Y3069983D02*
G01*
X79994Y3069983D01*
X79994Y3069983D02*
G01*
X79994Y2069983D01*
X989992Y3069983D02*
G01*
X989992Y2069983D01*
X989992Y2069983D02*
G01*
X79994Y2069983D01*
X812370Y1129987D02*
G01*
X812370Y1192786D01*
X718591Y1192786D01*
X718591Y1129987D01*
X129108Y1129987D02*
G01*
X129108Y129987D01*
X278122Y1129987D02*
G01*
X278122Y129987D01*
X989992Y1129987D02*
G01*
X79994Y1129987D01*
X79994Y1129987D02*
G01*
X79994Y129987D01*
X989992Y1129987D02*
G01*
X989992Y129987D01*
X989992Y129987D02*
G01*
X79994Y129987D01*
X2335588Y1726092D02*
G01*
X2335593Y3148492D01*
X2173592Y1891195D02*
G01*
X1919592Y1891195D01*
X1919592Y2145195D01*
X2173592Y2145195D01*
X2173592Y2399195D01*
X1919592Y2399195D01*
X1919592Y2653195D01*
X2173592Y2653195D01*
X2173592Y2907195D01*
X1919592Y2907195D01*
X1919592Y3161195D01*
X4126984Y1718985D02*
G01*
X1656986Y1718985D01*
X1656986Y3158987D01*
X4126984Y3158987D01*
X4126984Y1718985D01*
X4125097Y67198D02*
G01*
X4125097Y1680098D01*
X1119997Y1680098D02*
G01*
X1119997Y67198D01*
X4125097Y67198D01*
X4119999Y1680098D02*
G01*
X1119997Y1680098D01*
G75*
G01*
X1518996Y2503495D02*
G03*
X1518996Y2376495I0J-63500D01*
G75*
G01*
X1518996Y2376495D02*
G03*
X1518996Y2249495I0J-63500D01*
G75*
G01*
X1518996Y2630495D02*
G03*
X1518996Y2503495I0J-63500D01*
G75*
G01*
X3370108Y3038114D02*
G03*
X3370108Y2641874I-149840J-198120D01*
G75*
G01
X921812Y2827995D02*
G03X921812Y2827995I-63500J0D01*
G75*
G01
X921812Y2319995D02*
G03X921812Y2319995I-63500J0D01*
G75*
G01
X921812Y887994D02*
G03X921812Y887994I-63500J0D01*
G75*
G01
X921812Y379994D02*
G03X921812Y379994I-63500J0D01*
D13*
G75*
G01
X3746241Y1903893D02*
G03X3746241Y1903893I-23241J0D01*
M02*
